# Blender 5.1.0
# www.blender.org
mtllib pantalla.mtl
o Screen_glass
v 0.829079 0.146031 0.041301
v 0.829178 0.146129 0.041301
v 0.829079 0.146129 0.041399
v 0.829149 0.146060 0.041301
v 0.829136 0.146072 0.041358
v 0.829149 0.146129 0.041370
v 0.829079 0.146060 0.041370
v 0.829079 0.146031 0.038821
v 0.829079 0.146129 0.038723
v 0.829178 0.146129 0.038821
v 0.829079 0.146060 0.038752
v 0.829136 0.146072 0.038764
v 0.829149 0.146129 0.038752
v 0.829149 0.146060 0.038821
v 0.823884 1.083858 0.041300
v 0.823871 1.083760 0.041399
v 0.823880 1.083829 0.041370
v 0.829178 1.078565 0.041300
v 0.829079 1.078552 0.041399
v 0.829148 1.078561 0.041370
v 0.826531 1.083149 0.041300
v 0.826480 1.083061 0.041399
v 0.826515 1.083122 0.041370
v 0.828468 1.081212 0.041300
v 0.828380 1.081161 0.041399
v 0.828441 1.081196 0.041370
v 0.823871 1.083760 0.038722
v 0.823884 1.083858 0.038821
v 0.823880 1.083829 0.038751
v 0.829079 1.078552 0.038722
v 0.829178 1.078565 0.038821
v 0.829148 1.078561 0.038751
v 0.826480 1.083061 0.038722
v 0.826531 1.083149 0.038821
v 0.826515 1.083122 0.038751
v 0.828380 1.081161 0.038722
v 0.828468 1.081212 0.038821
v 0.828441 1.081196 0.038751
v 0.824029 0.146031 0.041301
v 0.824030 0.146060 0.041370
v 0.824030 0.146129 0.041399
v 0.824030 0.146129 0.038723
v 0.824030 0.146060 0.038752
v 0.824029 0.146031 0.038821
v 0.826554 0.146031 0.041301
v 0.826554 0.146129 0.038723
v 0.826554 0.146060 0.041370
v 0.826554 0.146129 0.041399
v 0.826554 0.146060 0.038752
v 0.826554 0.146031 0.038821
v 0.826554 1.078542 0.041399
v 0.823950 1.081145 0.041399
v 0.825179 1.081525 0.041399
v 0.826901 1.079803 0.041399
v -0.829079 0.146031 0.041301
v -0.829178 0.146129 0.041301
v -0.829079 0.146129 0.041399
v -0.829149 0.146060 0.041301
v -0.829136 0.146072 0.041358
v -0.829149 0.146129 0.041370
v -0.829079 0.146060 0.041370
v -0.829079 0.146031 0.038821
v -0.829079 0.146129 0.038723
v -0.829178 0.146129 0.038821
v -0.829079 0.146060 0.038752
v -0.829136 0.146072 0.038764
v -0.829149 0.146129 0.038752
v -0.829149 0.146060 0.038821
v -0.823884 1.083858 0.041300
v -0.823871 1.083760 0.041399
v -0.823880 1.083829 0.041370
v -0.829178 1.078565 0.041300
v -0.829079 1.078552 0.041399
v -0.829148 1.078561 0.041370
v -0.826531 1.083149 0.041300
v -0.826480 1.083061 0.041399
v -0.826515 1.083122 0.041370
v -0.828468 1.081212 0.041300
v -0.828380 1.081161 0.041399
v -0.828441 1.081196 0.041370
v -0.823871 1.083760 0.038722
v -0.823884 1.083858 0.038821
v -0.823880 1.083829 0.038751
v -0.829079 1.078552 0.038722
v -0.829178 1.078565 0.038821
v -0.829148 1.078561 0.038751
v -0.826480 1.083061 0.038722
v -0.826531 1.083149 0.038821
v -0.826515 1.083122 0.038751
v -0.828380 1.081161 0.038722
v -0.828468 1.081212 0.038821
v -0.828441 1.081196 0.038751
v -0.824029 0.146031 0.041301
v -0.824030 0.146060 0.041370
v -0.824030 0.146129 0.041399
v -0.824030 0.146129 0.038723
v -0.824030 0.146060 0.038752
v -0.824029 0.146031 0.038821
v -0.826554 0.146031 0.041301
v -0.826554 0.146129 0.038723
v -0.826554 0.146060 0.041370
v -0.826554 0.146129 0.041399
v -0.826554 0.146060 0.038752
v -0.826554 0.146031 0.038821
v -0.826554 1.078542 0.041399
v -0.823950 1.081145 0.041399
v -0.825179 1.081525 0.041399
v -0.826901 1.079803 0.041399
vn 0.9999 -0.0000 0.0114
vn 0.9999 -0.0000 -0.0114
vn 0.9999 0.0008 -0.0114
vn 0.9999 0.0007 0.0114
vn -0.0000 -0.0000 1.0000
vn 0.0079 0.0137 0.9999
vn -0.0000 0.0108 0.9999
vn 0.9999 0.0008 0.0114
vn 0.8661 0.4998 -0.0122
vn 0.8660 0.4999 0.0122
vn 0.8659 0.5000 0.0122
vn 0.8660 0.4999 -0.0122
vn 0.4999 0.8660 -0.0121
vn 0.5000 0.8660 0.0122
vn 0.4999 0.8660 0.0122
vn 0.4998 0.8661 -0.0122
vn 0.0005 0.9999 -0.0115
vn 0.0005 0.9999 0.0115
vn 0.0111 -0.9999 0.0113
vn 0.6965 -0.6965 0.1725
vn 0.5773 -0.5772 0.5775
vn 0.1725 -0.6964 0.6966
vn 0.7070 -0.0000 0.7072
vn 0.5774 -0.5772 0.5775
vn 0.6965 -0.6964 0.1726
vn 0.0111 -0.0001 0.9999
vn 0.0110 -0.9999 -0.0113
vn 0.1726 -0.6964 -0.6966
vn 0.5774 -0.5771 -0.5775
vn 0.6966 -0.6964 -0.1726
vn 0.3827 -0.0011 -0.9239
vn 0.7071 -0.0001 -0.7072
vn 0.5774 -0.5771 -0.5776
vn 0.9999 -0.0001 -0.0114
vn 0.7070 -0.0000 -0.7072
vn -0.0000 -0.9999 0.0114
vn -0.0000 -0.7070 0.7072
vn -0.0000 -0.0001 1.0000
vn -0.0000 -0.3829 -0.9238
vn 0.1726 -0.6963 -0.6966
vn -0.0000 -0.7070 -0.7072
vn -0.0000 -0.9999 -0.0114
vn 0.9999 -0.0000 0.0115
vn 0.7070 0.0005 0.7072
vn 0.7071 -0.0001 0.7071
vn 0.7070 0.0006 0.7072
vn 0.0112 -0.0000 0.9999
vn 0.8660 0.5000 0.0122
vn 0.6278 0.3625 0.6888
vn 0.6278 0.3625 0.6889
vn 0.0139 0.0080 0.9999
vn 0.3625 0.6278 0.6889
vn 0.6278 0.3626 0.6888
vn 0.6277 0.3625 0.6889
vn 0.3625 0.6277 0.6889
vn 0.0003 0.7070 0.7072
vn -0.0005 0.9999 0.0115
vn -0.0003 0.7070 0.7072
vn 0.3836 0.0003 -0.9235
vn 0.7070 0.0005 -0.7072
vn 0.7070 -0.0001 -0.7072
vn 0.7071 -0.0000 -0.7072
vn 0.9999 0.0008 -0.0115
vn 0.3262 0.1886 -0.9263
vn 0.6277 0.3625 -0.6889
vn 0.7070 0.0006 -0.7072
vn 0.6278 0.3625 -0.6888
vn 0.8660 0.4998 -0.0122
vn 0.3262 0.1887 -0.9263
vn 0.1887 0.3258 -0.9264
vn 0.3625 0.6277 -0.6889
vn 0.6277 0.3625 -0.6888
vn 0.3625 0.6278 -0.6889
vn 0.4998 0.8660 -0.0122
vn 0.1886 0.3258 -0.9264
vn 0.0002 0.3839 -0.9234
vn 0.0003 0.7070 -0.7072
vn 0.3624 0.6278 -0.6889
vn 0.0004 0.9999 -0.0115
vn -0.0000 -0.7069 -0.7073
vn -0.0000 -0.7073 -0.7069
vn -0.0000 -0.3831 -0.9237
vn 0.9999 -0.0001 0.0114
vn 0.6966 -0.6965 0.1725
vn 0.6965 -0.6964 -0.1726
vn 0.0111 -0.9999 -0.0113
vn -0.0000 -0.9999 -0.0113
vn 0.0111 -0.0000 0.9999
vn -0.0005 0.9999 0.0114
vn 0.0005 0.9999 0.0114
vn -0.0004 0.9999 -0.0114
vn -0.0003 0.7071 -0.7072
vn -0.0005 0.9999 -0.0115
vn 0.0003 0.7071 -0.7072
vn -0.0001 0.3839 -0.9234
vn -0.0003 0.7070 -0.7072
vn 0.0001 0.3839 -0.9234
vn -0.0000 -0.7073 0.7070
vn -0.0000 -0.3830 -0.9238
vn -0.0000 -0.7070 0.7073
vn -0.0000 -0.7073 0.7069
vn 0.0138 0.0080 0.9999
vn -0.9999 -0.0000 0.0114
vn -0.9999 0.0008 0.0114
vn -0.9999 0.0008 -0.0114
vn -0.9999 -0.0000 -0.0114
vn -0.0079 0.0137 0.9999
vn -0.8661 0.4998 0.0122
vn -0.8660 0.4999 -0.0122
vn -0.8660 0.4999 0.0122
vn -0.4999 0.8660 0.0121
vn -0.5000 0.8660 -0.0122
vn -0.8659 0.5000 -0.0122
vn -0.4998 0.8661 0.0122
vn -0.4999 0.8660 -0.0121
vn -0.0111 -0.9999 0.0113
vn -0.1725 -0.6964 0.6966
vn -0.5773 -0.5772 0.5775
vn -0.6965 -0.6965 0.1726
vn -0.6965 -0.6964 0.1726
vn -0.5773 -0.5772 0.5776
vn -0.7070 -0.0000 0.7072
vn -0.0112 -0.0000 0.9999
vn -0.7070 -0.0001 0.7072
vn -0.0111 -0.9999 -0.0113
vn -0.6966 -0.6964 -0.1726
vn -0.5774 -0.5771 -0.5775
vn -0.1726 -0.6964 -0.6966
vn -0.3826 -0.0011 -0.9239
vn -0.7070 -0.0000 -0.7072
vn -0.9999 -0.0000 -0.0115
vn -0.7070 -0.0001 -0.7072
vn -0.0111 -0.0000 0.9999
vn -0.3826 -0.0010 -0.9239
vn -0.0110 -0.9999 -0.0113
vn -0.9999 -0.0001 0.0114
vn -0.7070 0.0005 0.7072
vn -0.9999 0.0007 0.0114
vn -0.7069 0.0005 0.7073
vn -0.6278 0.3625 0.6888
vn -0.0138 0.0080 0.9999
vn -0.6277 0.3625 0.6888
vn -0.8660 0.4998 0.0122
vn -0.3625 0.6277 0.6889
vn -0.4999 0.8660 0.0122
vn -0.6277 0.3626 0.6888
vn -0.0137 0.0081 0.9999
vn -0.4998 0.8660 0.0122
vn -0.3624 0.6278 0.6889
vn -0.3624 0.6277 0.6889
vn -0.7070 -0.0001 -0.7073
vn -0.7070 0.0005 -0.7073
vn -0.3836 -0.0000 -0.9235
vn -0.9999 -0.0001 -0.0115
vn -0.9999 0.0008 -0.0115
vn -0.7070 0.0005 -0.7072
vn -0.3835 0.0003 -0.9236
vn -0.6278 0.3625 -0.6889
vn -0.3261 0.1886 -0.9263
vn -0.7070 0.0006 -0.7072
vn -0.6278 0.3625 -0.6888
vn -0.3261 0.1887 -0.9263
vn -0.6277 0.3625 -0.6889
vn -0.3625 0.6277 -0.6889
vn -0.1886 0.3258 -0.9264
vn -0.3624 0.6278 -0.6889
vn -0.0002 0.3839 -0.9234
vn -0.4999 0.8660 -0.0122
vn -0.0004 0.9999 -0.0115
vn -0.9999 -0.0001 -0.0114
vn -0.6966 -0.6965 0.1725
vn -0.6966 -0.6964 -0.1725
vn -0.0137 0.0080 0.9999
vt 0.989546 0.234138
vt 0.990745 0.233841
vt 0.991585 0.788656
vt 0.990178 0.788322
vt 0.987069 0.789598
vt 0.987766 0.789795
vt 0.988501 0.790607
vt 0.987103 0.791094
vt 0.990766 0.790460
vt 0.989559 0.789619
vt 0.989358 0.791858
vt 0.988527 0.790648
vt 0.007849 0.234338
vt 0.986979 0.234097
vt 0.008032 0.789838
vt 0.987549 0.792655
vt 0.987220 0.791249
vt 0.989641 0.234408
vt 0.989562 0.234278
vt 0.989601 0.234250
vt 0.989674 0.234297
vt 0.989558 0.234176
vt 0.989702 0.234207
vt 0.990429 0.233532
vt 0.990581 0.233550
vt 0.990620 0.233648
vt 0.990557 0.233715
vt 0.990684 0.233573
vt 0.990721 0.233680
vt 0.988486 0.234052
vt 0.988437 0.234099
vt 0.988388 0.234146
vt 0.989014 0.232605
vt 0.988990 0.232655
vt 0.988966 0.232706
vt 0.990053 0.788261
vt 0.989966 0.788199
vt 0.989533 0.789604
vt 0.989508 0.789589
vt 0.988514 0.790627
vt 0.987156 0.791088
vt 0.987078 0.233842
vt 0.007744 0.234184
vt 0.007586 0.232705
vt 0.987253 0.232335
vt 0.007873 0.791373
vt 0.007929 0.791348
vt 0.991679 0.788679
vt 0.991632 0.788668
vt 0.990852 0.790520
vt 0.990810 0.790490
vt 0.989420 0.791945
vt 0.989390 0.791902
vt 0.987553 0.792872
vt 0.987559 0.792679
vt 0.007986 0.791320
vt 0.987257 0.232140
vt 0.007581 0.232657
vt 0.007576 0.232609
vt 0.987266 0.231945
vt 0.988544 0.788121
vt 0.007564 0.792779
vt 0.007553 0.792826
vt 0.007542 0.792872
vt 0.007797 0.234260
vt 0.987027 0.233884
vt 0.988723 0.788833
vt 0.005369 0.234378
vt 0.004948 0.788557
vt 0.003555 0.788889
vt 0.004166 0.234098
vt 0.006601 0.790813
vt 0.007337 0.790022
vt 0.005560 0.789836
vt 0.004378 0.790669
vt 0.006574 0.790834
vt 0.005778 0.792027
vt 0.005214 0.234672
vt 0.005164 0.234562
vt 0.005235 0.234506
vt 0.005311 0.234539
vt 0.005231 0.234416
vt 0.005124 0.234470
vt 0.004462 0.233793
vt 0.004340 0.233973
vt 0.004271 0.233909
vt 0.004303 0.233809
vt 0.004188 0.233837
vt 0.004171 0.233946
vt 0.006353 0.234341
vt 0.006398 0.234376
vt 0.006443 0.234410
vt 0.005880 0.232921
vt 0.005899 0.232971
vt 0.005917 0.233021
vt 0.005071 0.788496
vt 0.005156 0.788435
vt 0.005586 0.789822
vt 0.005611 0.789808
vt 0.006587 0.790824
vt 0.003435 0.788898
vt 0.003412 0.788913
vt 0.004335 0.790700
vt 0.004293 0.790730
vt 0.005749 0.792070
vt 0.005721 0.792112
vt 0.006567 0.788358
vt 0.006389 0.789064
s 1
usemtl Screen_Glass1
f 2/1/1 10/2/2 31/3/3 18/4/4
f 52/5/5 53/6/5 22/7/6 16/8/7
f 18/4/8 31/3/3 37/9/9 24/10/10
f 24/10/11 37/9/12 34/11/13 21/12/14
f 95/13/5 41/14/5 52/5/5 106/15/5
f 21/12/15 34/11/16 28/16/17 15/17/18
f 1/18/19 4/19/20 5/20/21 7/21/22
f 2/1/1 6/22/23 5/20/24 4/19/25
f 3/23/26 7/21/22 5/20/24 6/22/23
f 8/24/27 11/25/28 12/26/29 14/27/30
f 9/28/31 13/29/32 12/26/33 11/25/28
f 10/2/34 14/27/30 12/26/33 13/29/35
f 45/30/36 1/18/19 7/21/22 47/31/37
f 47/31/37 7/21/22 3/23/26 48/32/38
f 46/33/39 9/28/31 11/25/40 49/34/41
f 49/34/41 11/25/28 8/24/27 50/35/42
f 2/1/43 18/4/8 20/36/44 6/22/45
f 6/22/23 20/36/46 19/37/47 3/23/26
f 18/4/8 24/10/48 26/38/49 20/36/44
f 20/36/44 26/38/50 25/39/51 19/37/47
f 24/10/48 21/12/14 23/40/52 26/38/53
f 26/38/54 23/40/55 22/7/6 25/39/51
f 21/12/15 15/17/18 17/41/56 23/40/55
f 23/40/55 17/41/56 16/8/7 22/7/6
f 39/42/36 93/43/36 98/44/42 44/45/42
f 69/46/57 71/47/58 17/41/56 15/17/18
f 9/28/31 30/48/59 32/49/60 13/29/61
f 13/29/62 32/49/60 31/3/63 10/2/34
f 30/48/59 36/50/64 38/51/65 32/49/66
f 32/49/60 38/51/67 37/9/68 31/3/63
f 36/50/69 33/52/70 35/53/71 38/51/65
f 38/51/72 35/53/73 34/11/74 37/9/68
f 33/52/75 27/54/76 29/55/77 35/53/71
f 35/53/78 29/55/77 28/16/79 34/11/74
f 16/8/7 70/56/7 106/15/5 52/5/5
f 43/57/80 97/58/81 96/59/82 42/60/82
f 10/2/34 2/1/83 4/19/84 14/27/30
f 14/27/85 4/19/20 1/18/19 8/24/86
f 45/30/36 50/35/87 8/24/86 1/18/19
f 48/32/5 3/23/88 19/37/47 51/61/5
f 41/14/5 48/32/5 51/61/5 52/5/5
f 69/46/89 15/17/90 28/16/79 82/62/91
f 83/63/92 82/62/93 28/16/79 29/55/94
f 81/64/95 83/63/96 29/55/77 27/54/97
f 44/45/42 98/44/42 97/58/81 43/57/41
f 41/14/5 95/13/5 94/65/98 40/66/98
f 71/47/58 70/56/7 16/8/7 17/41/56
f 39/42/36 44/45/42 50/35/87 45/30/36
f 43/57/41 49/34/41 50/35/42 44/45/42
f 42/60/99 46/33/99 49/34/41 43/57/80
f 40/66/98 47/31/100 48/32/38 41/14/5
f 39/42/36 45/30/36 47/31/37 40/66/101
f 51/61/5 19/37/47 25/39/102 54/67/5
f 53/6/5 54/67/5 25/39/102 22/7/6
f 51/61/5 54/67/5 53/6/5 52/5/5
f 56/68/103 72/69/104 85/70/105 64/71/106
f 106/15/5 70/56/7 76/72/107 107/73/5
f 72/69/104 78/74/108 91/75/109 85/70/105
f 78/74/110 75/76/111 88/77/112 91/75/113
f 75/76/114 69/46/89 82/62/93 88/77/115
f 55/78/116 61/79/117 59/80/118 58/81/119
f 56/68/103 58/81/120 59/80/121 60/82/122
f 57/83/123 60/82/124 59/80/121 61/79/117
f 62/84/125 68/85/126 66/86/127 65/87/128
f 63/88/129 65/87/128 66/86/127 67/89/130
f 64/71/131 67/89/132 66/86/127 68/85/126
f 99/90/36 101/91/37 61/79/117 55/78/116
f 101/91/100 102/92/38 57/83/133 61/79/117
f 100/93/39 103/94/41 65/87/128 63/88/134
f 103/94/41 104/95/42 62/84/135 65/87/128
f 56/68/136 60/82/124 74/96/137 72/69/138
f 60/82/122 57/83/123 73/97/123 74/96/139
f 72/69/104 74/96/137 80/98/140 78/74/108
f 74/96/139 73/97/123 79/99/141 80/98/142
f 78/74/143 80/98/140 77/100/144 75/76/145
f 80/98/146 79/99/147 76/72/107 77/100/144
f 75/76/148 77/100/149 71/47/58 69/46/57
f 77/100/150 76/72/107 70/56/7 71/47/58
f 63/88/129 67/89/151 86/101/152 84/102/153
f 67/89/130 64/71/154 85/70/155 86/101/156
f 84/102/157 86/101/152 92/103/158 90/104/159
f 86/101/160 85/70/155 91/75/109 92/103/161
f 90/104/162 92/103/163 89/105/164 87/106/165
f 92/103/161 91/75/113 88/77/112 89/105/166
f 87/106/165 89/105/164 83/63/96 81/64/167
f 89/105/166 88/77/168 82/62/169 83/63/92
f 64/71/170 68/85/126 58/81/171 56/68/136
f 68/85/172 62/84/125 55/78/116 58/81/119
f 99/90/36 55/78/116 62/84/125 104/95/42
f 102/92/5 105/107/5 73/97/123 57/83/133
f 95/13/5 106/15/5 105/107/5 102/92/5
f 93/43/36 99/90/36 104/95/42 98/44/42
f 97/58/81 98/44/42 104/95/42 103/94/41
f 96/59/99 97/58/81 103/94/41 100/93/99
f 94/65/98 95/13/5 102/92/38 101/91/100
f 93/43/36 94/65/101 101/91/37 99/90/36
f 105/107/5 108/108/5 79/99/173 73/97/123
f 107/73/5 76/72/107 79/99/173 108/108/5
f 105/107/5 106/15/5 107/73/5 108/108/5
f 40/66/101 94/65/101 93/43/36 39/42/36
