# Blender 5.1.0
# www.blender.org
mtllib anillo.mtl
o SM_Bin_ring
v -0.198979 0.245073 0.025244
v -0.198979 0.302286 0.025244
v -0.200539 0.245073 -0.003782
v -0.200539 0.302286 -0.003782
v -0.195108 0.245073 -0.032339
v -0.195108 0.302286 -0.032339
v -0.183000 0.245073 -0.058765
v -0.183000 0.302286 -0.058765
v -0.164920 0.245073 -0.081526
v -0.164920 0.302286 -0.081526
v -0.141919 0.245073 -0.099299
v -0.141919 0.302286 -0.099299
v -0.115332 0.245073 -0.111050
v -0.115332 0.302286 -0.111050
v -0.086706 0.245072 -0.116098
v -0.086706 0.302286 -0.116098
v -0.057703 0.245072 -0.114148
v -0.057703 0.302286 -0.114148
v -0.030010 0.245072 -0.105314
v -0.030010 0.302286 -0.105314
v -0.005235 0.245072 -0.090110
v -0.005235 0.302286 -0.090110
v 0.015180 0.245072 -0.069418
v 0.015180 0.302286 -0.069418
v 0.030051 0.245072 -0.044442
v 0.030051 0.302286 -0.044442
v 0.038512 0.245072 -0.016633
v 0.038512 0.302286 -0.016633
v 0.040073 0.245072 0.012394
v 0.040073 0.302286 0.012394
v 0.034641 0.245072 0.040950
v 0.034641 0.302286 0.040950
v 0.022534 0.245072 0.067376
v 0.022534 0.302286 0.067376
v 0.004454 0.245072 0.090137
v 0.004454 0.302286 0.090137
v -0.018548 0.245072 0.107910
v -0.018548 0.302286 0.107910
v -0.045135 0.245072 0.119662
v -0.045135 0.302286 0.119662
v -0.073761 0.245073 0.124709
v -0.073761 0.302286 0.124709
v -0.102764 0.245073 0.122759
v -0.102764 0.302286 0.122759
v -0.130457 0.245073 0.113925
v -0.130457 0.302286 0.113925
v -0.155231 0.245073 0.098721
v -0.155231 0.302286 0.098721
v -0.175647 0.245073 0.078029
v -0.175647 0.302286 0.078029
v -0.190518 0.245073 0.053053
v -0.190518 0.302286 0.053053
v 0.034739 0.256081 0.012035
v 0.034739 0.248479 0.012035
v 0.034739 0.298879 0.012035
v 0.034739 0.291277 0.012035
v 0.029549 0.256081 0.039325
v 0.029549 0.248479 0.039325
v 0.029549 0.298879 0.039325
v 0.029549 0.291277 0.039325
v 0.017978 0.256081 0.064580
v 0.017978 0.248479 0.064580
v 0.017978 0.298879 0.064580
v 0.017978 0.291277 0.064580
v 0.000699 0.256081 0.086332
v 0.000699 0.248479 0.086332
v 0.000699 0.298879 0.086332
v 0.000699 0.291277 0.086332
v -0.021283 0.256081 0.103317
v -0.021283 0.248479 0.103317
v -0.021283 0.298879 0.103317
v -0.021283 0.291277 0.103317
v -0.046691 0.256081 0.114548
v -0.046691 0.248479 0.114548
v -0.046691 0.298879 0.114548
v -0.046691 0.291277 0.114548
v -0.074048 0.256081 0.119372
v -0.074048 0.248479 0.119372
v -0.074048 0.298879 0.119372
v -0.074048 0.291277 0.119372
v -0.101765 0.256081 0.117508
v -0.101765 0.248479 0.117508
v -0.101765 0.298879 0.117508
v -0.101765 0.291277 0.117508
v -0.128230 0.256081 0.109066
v -0.128230 0.248479 0.109066
v -0.128230 0.298879 0.109066
v -0.128230 0.291277 0.109066
v -0.151906 0.256081 0.094535
v -0.151906 0.248479 0.094535
v -0.151906 0.298879 0.094535
v -0.151906 0.291277 0.094535
v -0.171417 0.256081 0.074761
v -0.171417 0.248479 0.074761
v -0.171417 0.298879 0.074761
v -0.171417 0.291277 0.074761
v -0.185629 0.256081 0.050892
v -0.185629 0.248479 0.050892
v -0.193715 0.248479 0.024315
v -0.193715 0.256081 0.024315
v -0.193715 0.291277 0.024315
v -0.193715 0.298879 0.024315
v -0.185629 0.298879 0.050892
v -0.185629 0.291277 0.050892
v -0.198979 0.298879 0.025244
v -0.198979 0.291277 0.025244
v -0.198979 0.256081 0.025244
v -0.198979 0.248479 0.025244
v -0.200539 0.248479 -0.003782
v -0.200539 0.256081 -0.003782
v -0.200539 0.291277 -0.003782
v -0.200539 0.298879 -0.003782
v -0.195108 0.248479 -0.032339
v -0.195108 0.256081 -0.032339
v -0.195108 0.291277 -0.032339
v -0.195108 0.298879 -0.032339
v -0.183000 0.248479 -0.058765
v -0.183000 0.256081 -0.058765
v -0.183000 0.291277 -0.058765
v -0.183000 0.298879 -0.058765
v -0.164920 0.248479 -0.081526
v -0.164920 0.256081 -0.081526
v -0.164920 0.291277 -0.081526
v -0.164920 0.298879 -0.081526
v -0.141919 0.248479 -0.099299
v -0.141919 0.256081 -0.099299
v -0.141919 0.291277 -0.099299
v -0.141919 0.298879 -0.099299
v -0.115332 0.248479 -0.111050
v -0.115332 0.256081 -0.111050
v -0.115332 0.291277 -0.111050
v -0.115332 0.298879 -0.111050
v -0.086706 0.248479 -0.116098
v -0.086706 0.256081 -0.116098
v -0.086706 0.291277 -0.116098
v -0.086706 0.298879 -0.116098
v -0.057703 0.248479 -0.114148
v -0.057703 0.256081 -0.114148
v -0.057703 0.291277 -0.114148
v -0.057703 0.298879 -0.114148
v -0.030010 0.248479 -0.105314
v -0.030010 0.256081 -0.105314
v -0.030010 0.291277 -0.105314
v -0.030010 0.298879 -0.105314
v -0.005235 0.248479 -0.090110
v -0.005235 0.256081 -0.090110
v -0.005235 0.291277 -0.090110
v -0.005235 0.298879 -0.090110
v 0.015180 0.248479 -0.069418
v 0.015180 0.256081 -0.069418
v 0.015180 0.291277 -0.069418
v 0.015180 0.298879 -0.069418
v 0.030051 0.248479 -0.044442
v 0.030051 0.256081 -0.044442
v 0.030051 0.291277 -0.044442
v 0.030051 0.298879 -0.044442
v 0.038512 0.248479 -0.016633
v 0.038512 0.256081 -0.016633
v 0.038512 0.291277 -0.016633
v 0.038512 0.298879 -0.016633
v 0.040073 0.248479 0.012394
v 0.040073 0.256081 0.012394
v 0.040073 0.291277 0.012394
v 0.040073 0.298879 0.012394
v 0.034641 0.248479 0.040950
v 0.034641 0.256081 0.040950
v 0.034641 0.291277 0.040950
v 0.034641 0.298879 0.040950
v 0.022534 0.248479 0.067376
v 0.022534 0.256081 0.067376
v 0.022534 0.291277 0.067376
v 0.022534 0.298879 0.067376
v 0.004454 0.248479 0.090137
v 0.004454 0.256081 0.090137
v 0.004454 0.291277 0.090137
v 0.004454 0.298879 0.090137
v -0.018548 0.248479 0.107910
v -0.018548 0.256081 0.107910
v -0.018548 0.291277 0.107910
v -0.018548 0.298879 0.107910
v -0.045135 0.248479 0.119662
v -0.045135 0.256081 0.119662
v -0.045135 0.291277 0.119662
v -0.045135 0.298879 0.119662
v -0.073761 0.248479 0.124709
v -0.073761 0.256081 0.124709
v -0.073761 0.291277 0.124709
v -0.073761 0.298879 0.124709
v -0.102764 0.248479 0.122759
v -0.102764 0.256081 0.122759
v -0.102764 0.291277 0.122759
v -0.102764 0.298879 0.122759
v -0.130457 0.248479 0.113925
v -0.130457 0.256081 0.113925
v -0.130457 0.291277 0.113925
v -0.130457 0.298879 0.113925
v -0.155231 0.248479 0.098721
v -0.155231 0.256081 0.098721
v -0.155231 0.291277 0.098721
v -0.155231 0.298879 0.098721
v -0.175647 0.248479 0.078029
v -0.175647 0.256081 0.078029
v -0.175647 0.291277 0.078029
v -0.175647 0.298879 0.078029
v -0.190518 0.248479 0.053053
v -0.190518 0.256081 0.053053
v -0.190518 0.291277 0.053053
v -0.190518 0.298879 0.053053
v 0.033248 0.291277 -0.015704
v 0.033248 0.298879 -0.015704
v 0.033248 0.248479 -0.015704
v 0.033248 0.256081 -0.015704
v 0.025162 0.291277 -0.042281
v 0.025162 0.298879 -0.042281
v 0.025162 0.248479 -0.042281
v 0.025162 0.256081 -0.042281
v 0.010951 0.291277 -0.066150
v 0.010951 0.298879 -0.066150
v 0.010950 0.248479 -0.066150
v 0.010951 0.256081 -0.066150
v -0.008560 0.291277 -0.085924
v -0.008560 0.298879 -0.085924
v -0.008560 0.248479 -0.085924
v -0.008560 0.256081 -0.085924
v -0.032236 0.291277 -0.100455
v -0.032236 0.298879 -0.100455
v -0.032236 0.248479 -0.100455
v -0.032236 0.256081 -0.100455
v -0.058702 0.291277 -0.108897
v -0.058702 0.298879 -0.108897
v -0.058702 0.248479 -0.108897
v -0.058702 0.256081 -0.108897
v -0.086419 0.291277 -0.110760
v -0.086419 0.298879 -0.110760
v -0.086419 0.248479 -0.110760
v -0.086419 0.256081 -0.110760
v -0.113776 0.291277 -0.105937
v -0.113776 0.298879 -0.105937
v -0.113776 0.248479 -0.105937
v -0.113776 0.256081 -0.105937
v -0.139184 0.291277 -0.094706
v -0.139184 0.298879 -0.094706
v -0.139184 0.248479 -0.094706
v -0.139184 0.256081 -0.094706
v -0.161166 0.291277 -0.077721
v -0.161166 0.298879 -0.077721
v -0.161166 0.248479 -0.077721
v -0.161166 0.256081 -0.077721
v -0.178444 0.291277 -0.055969
v -0.178444 0.298879 -0.055969
v -0.178444 0.248479 -0.055969
v -0.178444 0.256081 -0.055969
v -0.190015 0.291277 -0.030714
v -0.190015 0.298879 -0.030714
v -0.190015 0.248479 -0.030714
v -0.190015 0.256081 -0.030714
v -0.195206 0.291277 -0.003424
v -0.195206 0.298879 -0.003424
v -0.195206 0.248479 -0.003424
v -0.195206 0.256081 -0.003424
v -0.183331 0.245073 0.022484
v -0.183331 0.302286 0.022484
v -0.184686 0.245073 -0.002717
v -0.184686 0.302286 -0.002717
v -0.179970 0.245073 -0.027510
v -0.179970 0.302286 -0.027510
v -0.169458 0.245073 -0.050454
v -0.169458 0.302286 -0.050454
v -0.153760 0.245073 -0.070215
v -0.153760 0.302286 -0.070215
v -0.133790 0.245073 -0.085646
v -0.133790 0.302286 -0.085646
v -0.110707 0.245073 -0.095849
v -0.110707 0.302286 -0.095849
v -0.085853 0.245072 -0.100232
v -0.085853 0.302286 -0.100232
v -0.060672 0.245072 -0.098539
v -0.060672 0.302286 -0.098539
v -0.036628 0.245072 -0.090869
v -0.036628 0.302286 -0.090869
v -0.015119 0.245072 -0.077668
v -0.015119 0.302286 -0.077668
v 0.002607 0.245072 -0.059703
v 0.002607 0.302286 -0.059703
v 0.015518 0.245072 -0.038018
v 0.015518 0.302286 -0.038018
v 0.022864 0.245072 -0.013873
v 0.022864 0.302286 -0.013873
v 0.024219 0.245072 0.011328
v 0.024219 0.302286 0.011328
v 0.019503 0.245072 0.036121
v 0.019503 0.302286 0.036121
v 0.008991 0.245072 0.059065
v 0.008991 0.302286 0.059065
v -0.006706 0.245072 0.078826
v -0.006706 0.302286 0.078826
v -0.026677 0.245072 0.094257
v -0.026677 0.302286 0.094257
v -0.049760 0.245072 0.104460
v -0.049760 0.302286 0.104460
v -0.074614 0.245073 0.108843
v -0.074614 0.302286 0.108843
v -0.099795 0.245073 0.107150
v -0.099795 0.302286 0.107150
v -0.123838 0.245073 0.099480
v -0.123838 0.302286 0.099480
v -0.145348 0.245073 0.086279
v -0.145348 0.302286 0.086279
v -0.163074 0.245073 0.068314
v -0.163074 0.302286 0.068314
v -0.175985 0.245073 0.046629
v -0.175985 0.302286 0.046629
vn -0.9848 -0.0000 0.1736
vn -0.9977 -0.0000 -0.0671
vn -0.9527 -0.0000 -0.3039
vn -0.8523 -0.0000 -0.5231
vn -0.7023 -0.0000 -0.7118
vn -0.5116 -0.0000 -0.8592
vn -0.2911 -0.0000 -0.9567
vn -0.0537 -0.0000 -0.9986
vn 0.1869 -0.0000 -0.9824
vn 0.4165 -0.0000 -0.9091
vn 0.6220 -0.0000 -0.7830
vn 0.7913 -0.0000 -0.6114
vn 0.9146 -0.0000 -0.4043
vn 0.9848 -0.0000 -0.1736
vn 0.9977 -0.0000 0.0671
vn 0.9527 -0.0000 0.3039
vn 0.8523 -0.0000 0.5231
vn 0.7023 -0.0000 0.7118
vn 0.5116 -0.0000 0.8592
vn 0.2911 -0.0000 0.9567
vn 0.0537 -0.0000 0.9986
vn -0.1869 -0.0000 0.9824
vn -0.4165 -0.0000 0.9091
vn -0.6220 -0.0000 0.7830
vn -0.7913 -0.0000 0.6114
vn -0.9146 -0.0000 0.4043
vn -0.0000 1.0000 -0.0000
vn -0.0000 -1.0000 -0.0000
vt 0.058399 0.680469
vt 0.054789 0.680469
vt 0.054789 0.649668
vt 0.058399 0.649668
vt 0.046446 0.187648
vt 0.050056 0.187648
vt 0.050056 0.218449
vt 0.046446 0.218449
vt 0.050056 0.249250
vt 0.046446 0.249250
vt 0.050056 0.280052
vt 0.046446 0.280052
vt 0.050056 0.310853
vt 0.046446 0.310853
vt 0.050056 0.341654
vt 0.046446 0.341654
vt 0.050056 0.372456
vt 0.046446 0.372456
vt 0.050056 0.403257
vt 0.046446 0.403257
vt 0.050056 0.434059
vt 0.046446 0.434059
vt 0.050056 0.464860
vt 0.046446 0.464860
vt 0.050056 0.495661
vt 0.046446 0.495661
vt 0.050056 0.526463
vt 0.046446 0.526463
vt 0.050056 0.557264
vt 0.046446 0.557264
vt 0.050056 0.588065
vt 0.046446 0.588065
vt 0.050056 0.618867
vt 0.046446 0.618867
vt 0.050056 0.649668
vt 0.046446 0.649668
vt 0.050056 0.680469
vt 0.046446 0.680469
vt 0.050056 0.711271
vt 0.046446 0.711271
vt 0.050056 0.742072
vt 0.046446 0.742072
vt 0.050056 0.772874
vt 0.046446 0.772874
vt 0.050056 0.803675
vt 0.046446 0.803675
vt 0.046446 0.002839
vt 0.050056 0.002839
vt 0.050056 0.033641
vt 0.046446 0.033641
vt 0.050056 0.064442
vt 0.046446 0.064442
vt 0.050056 0.095243
vt 0.046446 0.095243
vt 0.040323 0.156846
vt 0.040323 0.187648
vt 0.003028 0.187648
vt 0.003028 0.156846
vt 0.046446 0.156846
vt 0.050056 0.156846
vt 0.122359 0.090498
vt 0.122359 0.119934
vt 0.114304 0.119934
vt 0.114304 0.090498
vt 0.040323 0.064442
vt 0.040323 0.095244
vt 0.003028 0.095244
vt 0.003028 0.064442
vt 0.040323 0.033641
vt 0.003028 0.033641
vt 0.040323 0.002840
vt 0.003028 0.002840
vt 0.040323 0.772874
vt 0.040323 0.803675
vt 0.003028 0.803675
vt 0.003028 0.772874
vt 0.040323 0.742072
vt 0.003028 0.742072
vt 0.040323 0.711271
vt 0.003028 0.711271
vt 0.040323 0.680470
vt 0.003028 0.680470
vt 0.040323 0.649668
vt 0.003028 0.649668
vt 0.040323 0.618867
vt 0.003028 0.618867
vt 0.040323 0.588065
vt 0.003028 0.588065
vt 0.040323 0.557264
vt 0.003028 0.557264
vt 0.040323 0.526463
vt 0.003028 0.526463
vt 0.040323 0.495661
vt 0.003028 0.495661
vt 0.040323 0.464860
vt 0.003028 0.464860
vt 0.040323 0.434059
vt 0.003028 0.434059
vt 0.040323 0.403257
vt 0.003028 0.403257
vt 0.040323 0.372456
vt 0.003028 0.372456
vt 0.040323 0.341655
vt 0.003028 0.341655
vt 0.040323 0.310853
vt 0.003028 0.310853
vt 0.040323 0.280052
vt 0.003028 0.280052
vt 0.040323 0.249251
vt 0.003028 0.249251
vt 0.040323 0.218449
vt 0.003028 0.218449
vt 0.058399 0.711271
vt 0.054789 0.711271
vt 0.040323 0.126045
vt 0.003028 0.126045
vt 0.058399 0.742072
vt 0.054789 0.742072
vt 0.058399 0.772874
vt 0.054789 0.772874
vt 0.058398 0.803675
vt 0.054789 0.803675
vt 0.058399 0.033641
vt 0.054789 0.033641
vt 0.054789 0.002839
vt 0.058399 0.002839
vt 0.058399 0.064442
vt 0.054789 0.064442
vt 0.058399 0.095243
vt 0.054789 0.095243
vt 0.058399 0.126045
vt 0.054789 0.126045
vt 0.058399 0.156846
vt 0.054789 0.156846
vt 0.058399 0.187648
vt 0.054789 0.187648
vt 0.058399 0.218449
vt 0.054789 0.218449
vt 0.058399 0.249250
vt 0.054789 0.249250
vt 0.058399 0.280052
vt 0.054789 0.280052
vt 0.058399 0.310853
vt 0.054789 0.310853
vt 0.058399 0.341654
vt 0.054789 0.341654
vt 0.058399 0.372456
vt 0.054789 0.372456
vt 0.058399 0.403257
vt 0.054789 0.403257
vt 0.058399 0.434058
vt 0.054789 0.434058
vt 0.058399 0.464860
vt 0.054789 0.464860
vt 0.058399 0.495661
vt 0.054789 0.495661
vt 0.058399 0.526463
vt 0.054789 0.526463
vt 0.058399 0.557264
vt 0.054789 0.557264
vt 0.058399 0.588065
vt 0.054789 0.588065
vt 0.058399 0.618867
vt 0.054789 0.618867
vt 0.046446 0.126045
vt 0.050056 0.126045
vt 0.087598 0.242663
vt 0.087598 0.272672
vt 0.081954 0.272672
vt 0.081954 0.242663
vt 0.062488 0.782818
vt 0.062488 0.752810
vt 0.068132 0.752810
vt 0.068132 0.782818
vt 0.091688 0.542750
vt 0.091688 0.512741
vt 0.097331 0.512741
vt 0.097331 0.542750
vt 0.062488 0.512738
vt 0.062488 0.482730
vt 0.068132 0.482730
vt 0.068132 0.512738
vt 0.072221 0.272670
vt 0.072221 0.242661
vt 0.077865 0.242661
vt 0.077865 0.272670
vt 0.087598 0.752810
vt 0.087598 0.782818
vt 0.081954 0.782818
vt 0.081954 0.752810
vt 0.087598 0.482732
vt 0.087598 0.512741
vt 0.081954 0.512741
vt 0.081954 0.482732
vt 0.091688 0.032603
vt 0.091688 0.002595
vt 0.097331 0.002595
vt 0.097331 0.032603
vt 0.062488 0.242659
vt 0.062488 0.212650
vt 0.068132 0.212650
vt 0.068132 0.242659
vt 0.091688 0.302681
vt 0.091688 0.272673
vt 0.097331 0.272673
vt 0.097331 0.302681
vt 0.072221 0.782818
vt 0.072221 0.752810
vt 0.077865 0.752810
vt 0.077865 0.782818
vt 0.072221 0.512740
vt 0.072221 0.482731
vt 0.077865 0.482731
vt 0.077865 0.512740
vt 0.087598 0.212655
vt 0.081954 0.212655
vt 0.062488 0.722801
vt 0.068132 0.722801
vt 0.091688 0.572758
vt 0.097331 0.572758
vt 0.062488 0.452721
vt 0.068132 0.452721
vt 0.072221 0.212652
vt 0.077865 0.212652
vt 0.087598 0.722801
vt 0.081954 0.722801
vt 0.087598 0.452724
vt 0.081954 0.452724
vt 0.091688 0.062612
vt 0.097331 0.062612
vt 0.062488 0.182641
vt 0.068132 0.182641
vt 0.091688 0.332690
vt 0.097331 0.332690
vt 0.072221 0.722801
vt 0.077865 0.722801
vt 0.072221 0.452722
vt 0.077865 0.452722
vt 0.087598 0.182646
vt 0.081954 0.182646
vt 0.062488 0.692792
vt 0.068132 0.692792
vt 0.091688 0.602767
vt 0.097331 0.602767
vt 0.062488 0.422712
vt 0.068132 0.422712
vt 0.072221 0.182644
vt 0.077865 0.182644
vt 0.087598 0.692793
vt 0.081954 0.692793
vt 0.087598 0.422715
vt 0.081954 0.422715
vt 0.091688 0.092621
vt 0.097331 0.092621
vt 0.062488 0.152632
vt 0.068132 0.152632
vt 0.091688 0.362698
vt 0.097331 0.362698
vt 0.072221 0.692792
vt 0.077865 0.692792
vt 0.072221 0.422714
vt 0.077865 0.422714
vt 0.087598 0.152637
vt 0.081954 0.152637
vt 0.062488 0.662783
vt 0.068132 0.662783
vt 0.091688 0.632775
vt 0.097331 0.632775
vt 0.062488 0.392703
vt 0.068132 0.392703
vt 0.072221 0.152635
vt 0.077865 0.152635
vt 0.087598 0.662784
vt 0.081954 0.662784
vt 0.087598 0.392706
vt 0.081954 0.392706
vt 0.062488 0.122623
vt 0.068132 0.122623
vt 0.091688 0.392707
vt 0.097331 0.392707
vt 0.091688 0.122629
vt 0.097331 0.122629
vt 0.072221 0.392705
vt 0.077865 0.392705
vt 0.087598 0.122629
vt 0.081954 0.122629
vt 0.072221 0.662784
vt 0.077865 0.662784
vt 0.062488 0.632774
vt 0.068132 0.632774
vt 0.091688 0.662784
vt 0.097331 0.662784
vt 0.062488 0.362694
vt 0.068132 0.362694
vt 0.109844 0.649780
vt 0.109844 0.679216
vt 0.101789 0.679216
vt 0.101789 0.649780
vt 0.122359 0.061062
vt 0.114304 0.061062
vt 0.109844 0.708652
vt 0.101789 0.708652
vt 0.122359 0.031626
vt 0.114304 0.031626
vt 0.109844 0.738088
vt 0.101789 0.738088
vt 0.122359 0.002190
vt 0.114304 0.002190
vt 0.109844 0.767524
vt 0.101789 0.767524
vt 0.122359 0.738088
vt 0.122359 0.767524
vt 0.114304 0.767524
vt 0.114304 0.738088
vt 0.109845 0.002190
vt 0.109845 0.031626
vt 0.101790 0.031626
vt 0.101790 0.002190
vt 0.122359 0.708652
vt 0.114304 0.708652
vt 0.109845 0.061062
vt 0.101790 0.061062
vt 0.122359 0.679216
vt 0.114304 0.679216
vt 0.109845 0.090498
vt 0.101790 0.090498
vt 0.122359 0.649780
vt 0.114304 0.649780
vt 0.109845 0.119934
vt 0.101790 0.119934
vt 0.122359 0.620344
vt 0.114304 0.620344
vt 0.109845 0.149369
vt 0.101790 0.149369
vt 0.122359 0.590908
vt 0.114304 0.590908
vt 0.109845 0.178805
vt 0.101790 0.178805
vt 0.122359 0.561472
vt 0.114304 0.561472
vt 0.109845 0.208241
vt 0.101790 0.208241
vt 0.122359 0.532037
vt 0.114304 0.532037
vt 0.109845 0.237677
vt 0.101790 0.237677
vt 0.122359 0.502601
vt 0.114304 0.502601
vt 0.109845 0.267113
vt 0.101789 0.267113
vt 0.122359 0.473165
vt 0.114304 0.473165
vt 0.109845 0.296549
vt 0.101789 0.296549
vt 0.122359 0.443729
vt 0.114304 0.443729
vt 0.109845 0.325985
vt 0.101789 0.325985
vt 0.122359 0.414293
vt 0.114304 0.414293
vt 0.109845 0.355421
vt 0.101789 0.355421
vt 0.122359 0.384857
vt 0.114304 0.384857
vt 0.109845 0.384857
vt 0.101789 0.384857
vt 0.122359 0.355421
vt 0.114304 0.355421
vt 0.109845 0.414293
vt 0.101789 0.414293
vt 0.122359 0.325985
vt 0.114304 0.325985
vt 0.109845 0.443729
vt 0.101789 0.443729
vt 0.122359 0.296549
vt 0.114304 0.296549
vt 0.109845 0.473164
vt 0.101789 0.473164
vt 0.122359 0.267113
vt 0.114304 0.267113
vt 0.109845 0.502600
vt 0.101789 0.502600
vt 0.122359 0.237677
vt 0.114304 0.237677
vt 0.109845 0.532036
vt 0.101789 0.532036
vt 0.122359 0.208242
vt 0.114304 0.208242
vt 0.109845 0.561472
vt 0.101789 0.561472
vt 0.122359 0.178806
vt 0.114304 0.178806
vt 0.109845 0.590908
vt 0.101789 0.590908
vt 0.122359 0.149370
vt 0.114304 0.149370
vt 0.109844 0.620344
vt 0.101789 0.620344
vt 0.072221 0.542749
vt 0.077865 0.542749
vt 0.072221 0.032600
vt 0.072221 0.002591
vt 0.077865 0.002591
vt 0.077865 0.032600
vt 0.091688 0.242664
vt 0.097331 0.242664
vt 0.062488 0.272668
vt 0.068132 0.272668
vt 0.091688 0.782818
vt 0.091688 0.752810
vt 0.097331 0.752810
vt 0.097331 0.782818
vt 0.087598 0.542749
vt 0.081954 0.542749
vt 0.087598 0.002594
vt 0.087598 0.032603
vt 0.081954 0.032603
vt 0.081954 0.002594
vt 0.072221 0.302679
vt 0.077865 0.302679
vt 0.062488 0.542747
vt 0.068132 0.542747
vt 0.091688 0.482733
vt 0.097331 0.482733
vt 0.062488 0.032597
vt 0.062488 0.002588
vt 0.068132 0.002588
vt 0.068132 0.032597
vt 0.087598 0.302681
vt 0.081954 0.302681
vt 0.072221 0.572757
vt 0.077865 0.572757
vt 0.072221 0.062609
vt 0.077865 0.062609
vt 0.091688 0.212655
vt 0.097331 0.212655
vt 0.062488 0.302677
vt 0.068132 0.302677
vt 0.091688 0.722801
vt 0.097331 0.722801
vt 0.087598 0.572758
vt 0.081954 0.572758
vt 0.087598 0.062612
vt 0.081954 0.062612
vt 0.072221 0.332687
vt 0.077865 0.332687
vt 0.062488 0.572756
vt 0.068132 0.572756
vt 0.091688 0.452724
vt 0.097331 0.452724
vt 0.062488 0.062606
vt 0.068132 0.062606
vt 0.087598 0.332689
vt 0.081954 0.332689
vt 0.072221 0.602766
vt 0.077865 0.602766
vt 0.072221 0.092617
vt 0.077865 0.092617
vt 0.091688 0.182647
vt 0.097331 0.182647
vt 0.062488 0.332685
vt 0.068132 0.332685
vt 0.091688 0.692793
vt 0.097331 0.692793
vt 0.087598 0.602767
vt 0.081954 0.602767
vt 0.087598 0.092620
vt 0.081954 0.092620
vt 0.072221 0.362696
vt 0.077865 0.362696
vt 0.062488 0.602765
vt 0.068132 0.602765
vt 0.091688 0.422716
vt 0.097331 0.422716
vt 0.062488 0.092615
vt 0.068132 0.092615
vt 0.087598 0.362698
vt 0.081954 0.362698
vt 0.072221 0.632775
vt 0.077865 0.632775
vt 0.072221 0.122626
vt 0.077865 0.122626
vt 0.091688 0.152638
vt 0.097331 0.152638
vt 0.087598 0.632775
vt 0.081954 0.632775
vt 0.144606 0.490056
vt 0.144606 0.518723
vt 0.127830 0.518723
vt 0.127830 0.490056
vt 0.144606 0.117387
vt 0.144606 0.146054
vt 0.127830 0.146054
vt 0.127830 0.117387
vt 0.150077 0.518723
vt 0.150077 0.490057
vt 0.166853 0.490057
vt 0.166853 0.518723
vt 0.150077 0.146056
vt 0.150077 0.117389
vt 0.166853 0.117389
vt 0.166853 0.146056
vt 0.144606 0.547390
vt 0.127830 0.547390
vt 0.144606 0.174721
vt 0.127830 0.174721
vt 0.150077 0.547390
vt 0.166853 0.547390
vt 0.150077 0.174722
vt 0.166853 0.174722
vt 0.144606 0.576056
vt 0.127830 0.576056
vt 0.144606 0.203387
vt 0.127830 0.203387
vt 0.150077 0.576057
vt 0.166853 0.576057
vt 0.150077 0.203389
vt 0.166853 0.203389
vt 0.144606 0.604723
vt 0.127830 0.604723
vt 0.144606 0.232054
vt 0.127830 0.232054
vt 0.150077 0.604724
vt 0.166853 0.604724
vt 0.150077 0.232056
vt 0.166853 0.232056
vt 0.144606 0.633390
vt 0.127830 0.633390
vt 0.144606 0.260721
vt 0.127830 0.260721
vt 0.150077 0.633390
vt 0.166853 0.633390
vt 0.150077 0.260723
vt 0.166853 0.260723
vt 0.144606 0.662057
vt 0.127830 0.662057
vt 0.144606 0.289388
vt 0.127830 0.289388
vt 0.150077 0.662057
vt 0.166853 0.662057
vt 0.150077 0.289389
vt 0.166853 0.289389
vt 0.144606 0.690724
vt 0.127830 0.690724
vt 0.144606 0.318055
vt 0.127830 0.318055
vt 0.150077 0.690724
vt 0.166853 0.690724
vt 0.150077 0.318056
vt 0.166853 0.318056
vt 0.144606 0.719391
vt 0.127830 0.719391
vt 0.144606 0.346722
vt 0.127830 0.346722
vt 0.150077 0.719391
vt 0.166853 0.719391
vt 0.150077 0.346723
vt 0.166853 0.346723
vt 0.144606 0.748057
vt 0.127830 0.748057
vt 0.144606 0.375388
vt 0.127830 0.375388
vt 0.150077 0.748057
vt 0.166853 0.748057
vt 0.150077 0.375390
vt 0.166853 0.375390
vt 0.144606 0.002720
vt 0.144606 0.031387
vt 0.127830 0.031387
vt 0.127830 0.002720
vt 0.144606 0.404055
vt 0.127830 0.404055
vt 0.150077 0.031388
vt 0.150077 0.002722
vt 0.166853 0.002722
vt 0.166853 0.031388
vt 0.150077 0.404056
vt 0.166853 0.404056
vt 0.144606 0.060053
vt 0.127830 0.060053
vt 0.144606 0.432722
vt 0.127830 0.432722
vt 0.150077 0.060055
vt 0.166853 0.060055
vt 0.150077 0.432723
vt 0.166853 0.432723
vt 0.144606 0.088720
vt 0.127830 0.088720
vt 0.144606 0.461389
vt 0.127830 0.461389
vt 0.150077 0.088722
vt 0.166853 0.088722
vt 0.150077 0.461390
vt 0.166853 0.461390
vt 0.109668 0.870416
vt 0.082926 0.870416
vt 0.082926 0.809791
vt 0.109668 0.809791
vt 0.056183 0.870416
vt 0.056183 0.809791
vt 0.029441 0.870416
vt 0.029441 0.809791
vt 0.002699 0.870416
vt 0.002699 0.809791
vt 0.698002 0.870416
vt 0.671259 0.870416
vt 0.671259 0.809791
vt 0.698002 0.809791
vt 0.644516 0.870416
vt 0.644517 0.809791
vt 0.617774 0.870416
vt 0.617774 0.809791
vt 0.591032 0.870416
vt 0.591032 0.809791
vt 0.564289 0.870416
vt 0.564289 0.809791
vt 0.537547 0.870416
vt 0.537547 0.809791
vt 0.510805 0.870416
vt 0.510805 0.809791
vt 0.484062 0.870416
vt 0.484062 0.809791
vt 0.457320 0.870416
vt 0.457320 0.809791
vt 0.430577 0.870416
vt 0.430577 0.809791
vt 0.403835 0.870416
vt 0.403835 0.809791
vt 0.377092 0.870416
vt 0.377092 0.809791
vt 0.350350 0.870416
vt 0.350350 0.809791
vt 0.323608 0.870416
vt 0.323608 0.809791
vt 0.296865 0.870416
vt 0.296865 0.809791
vt 0.270123 0.870416
vt 0.270123 0.809791
vt 0.243380 0.870416
vt 0.243380 0.809791
vt 0.216638 0.870416
vt 0.216638 0.809791
vt 0.189895 0.870416
vt 0.189895 0.809791
vt 0.163153 0.870416
vt 0.163153 0.809791
vt 0.136411 0.870416
vt 0.136411 0.809791
s 1
usemtl T_Bin.001
f 1/1/1 108/2/1 109/3/2 3/4/2
f 116/5/3 6/6/3 8/7/4 120/8/4
f 120/8/4 8/7/4 10/9/5 124/10/5
f 124/10/5 10/9/5 12/11/6 128/12/6
f 128/12/6 12/11/6 14/13/7 132/14/7
f 132/14/7 14/13/7 16/15/8 136/16/8
f 136/16/8 16/15/8 18/17/9 140/18/9
f 140/18/9 18/17/9 20/19/10 144/20/10
f 144/20/10 20/19/10 22/21/11 148/22/11
f 148/22/11 22/21/11 24/23/12 152/24/12
f 152/24/12 24/23/12 26/25/13 156/26/13
f 156/26/13 26/25/13 28/27/14 160/28/14
f 160/28/14 28/27/14 30/29/15 164/30/15
f 164/30/15 30/29/15 32/31/16 168/32/16
f 168/32/16 32/31/16 34/33/17 172/34/17
f 172/34/17 34/33/17 36/35/18 176/36/18
f 176/36/18 36/35/18 38/37/19 180/38/19
f 180/38/19 38/37/19 40/39/20 184/40/20
f 184/40/20 40/39/20 42/41/21 188/42/21
f 188/42/21 42/41/21 44/43/22 192/44/22
f 192/44/22 44/43/22 46/45/23 196/46/23
f 196/47/23 46/48/23 48/49/24 200/50/24
f 200/50/24 48/49/24 50/51/25 204/52/25
f 204/52/25 50/51/25 52/53/26 208/54/26
f 111/55/2 115/56/3 114/57/3 110/58/2
f 112/59/2 4/60/2 6/6/3 116/5/3
f 103/61/26 102/62/1 101/63/1 104/64/26
f 203/65/25 207/66/26 206/67/26 202/68/25
f 199/69/24 203/65/25 202/68/25 198/70/24
f 195/71/23 199/69/24 198/70/24 194/72/23
f 191/73/22 195/74/23 194/75/23 190/76/22
f 187/77/21 191/73/22 190/76/22 186/78/21
f 183/79/20 187/77/21 186/78/21 182/80/20
f 179/81/19 183/79/20 182/80/20 178/82/19
f 175/83/18 179/81/19 178/82/19 174/84/18
f 171/85/17 175/83/18 174/84/18 170/86/17
f 167/87/16 171/85/17 170/86/17 166/88/16
f 163/89/15 167/87/16 166/88/16 162/90/15
f 159/91/14 163/89/15 162/90/15 158/92/14
f 155/93/13 159/91/14 158/92/14 154/94/13
f 151/95/12 155/93/13 154/94/13 150/96/12
f 147/97/11 151/95/12 150/96/12 146/98/11
f 143/99/10 147/97/11 146/98/11 142/100/10
f 139/101/9 143/99/10 142/100/10 138/102/9
f 135/103/8 139/101/9 138/102/9 134/104/8
f 131/105/7 135/103/8 134/104/8 130/106/7
f 127/107/6 131/105/7 130/106/7 126/108/6
f 123/109/5 127/107/6 126/108/6 122/110/5
f 119/111/4 123/109/5 122/110/5 118/112/4
f 115/56/3 119/111/4 118/112/4 114/57/3
f 51/113/26 205/114/26 108/2/1 1/1/1
f 106/115/1 111/55/2 110/58/2 107/116/1
f 49/117/25 201/118/25 205/114/26 51/113/26
f 47/119/24 197/120/24 201/118/25 49/117/25
f 45/121/23 193/122/23 197/120/24 47/119/24
f 43/123/22 189/124/22 193/125/23 45/126/23
f 41/127/21 185/128/21 189/124/22 43/123/22
f 39/129/20 181/130/20 185/128/21 41/127/21
f 37/131/19 177/132/19 181/130/20 39/129/20
f 35/133/18 173/134/18 177/132/19 37/131/19
f 33/135/17 169/136/17 173/134/18 35/133/18
f 31/137/16 165/138/16 169/136/17 33/135/17
f 29/139/15 161/140/15 165/138/16 31/137/16
f 27/141/14 157/142/14 161/140/15 29/139/15
f 25/143/13 153/144/13 157/142/14 27/141/14
f 23/145/12 149/146/12 153/144/13 25/143/13
f 21/147/11 145/148/11 149/146/12 23/145/12
f 19/149/10 141/150/10 145/148/11 21/147/11
f 17/151/9 137/152/9 141/150/10 19/149/10
f 15/153/8 133/154/8 137/152/9 17/151/9
f 13/155/7 129/156/7 133/154/8 15/153/8
f 11/157/6 125/158/6 129/156/7 13/155/7
f 9/159/5 121/160/5 125/158/6 11/157/6
f 7/161/4 117/162/4 121/160/5 9/159/5
f 5/163/3 113/164/3 117/162/4 7/161/4
f 3/4/2 109/3/2 113/164/3 5/163/3
f 105/165/1 2/166/1 4/60/2 112/59/2
f 207/66/26 106/115/1 107/116/1 206/67/26
f 161/167/27 157/168/27 211/169/27 54/170/27
f 194/171/28 198/172/28 89/173/28 85/174/28
f 163/175/27 159/176/27 209/177/27 56/178/27
f 126/179/28 130/180/28 240/181/28 244/182/28
f 160/183/28 164/184/28 55/185/28 210/186/28
f 197/187/27 193/188/27 86/189/27 90/190/27
f 129/191/27 125/192/27 243/193/27 239/194/27
f 199/195/27 195/196/27 88/197/27 92/198/27
f 162/199/28 166/200/28 57/201/28 53/202/28
f 131/203/27 127/204/27 241/205/27 237/206/27
f 196/207/28 200/208/28 91/209/28 87/210/28
f 128/211/28 132/212/28 238/213/28 242/214/28
f 165/215/27 161/167/27 54/170/27 58/216/27
f 198/172/28 202/217/28 93/218/28 89/173/28
f 167/219/27 163/175/27 56/178/27 60/220/27
f 130/180/28 134/221/28 236/222/28 240/181/28
f 164/184/28 168/223/28 59/224/28 55/185/28
f 201/225/27 197/187/27 90/190/27 94/226/27
f 133/227/27 129/191/27 239/194/27 235/228/27
f 203/229/27 199/195/27 92/198/27 96/230/27
f 166/200/28 170/231/28 61/232/28 57/201/28
f 135/233/27 131/203/27 237/206/27 233/234/27
f 200/208/28 204/235/28 95/236/28 91/209/28
f 132/212/28 136/237/28 234/238/28 238/213/28
f 169/239/27 165/215/27 58/216/27 62/240/27
f 202/217/28 206/241/28 97/242/28 93/218/28
f 171/243/27 167/219/27 60/220/27 64/244/27
f 134/221/28 138/245/28 232/246/28 236/222/28
f 168/223/28 172/247/28 63/248/28 59/224/28
f 205/249/27 201/225/27 94/226/27 98/250/27
f 137/251/27 133/227/27 235/228/27 231/252/27
f 207/253/27 203/229/27 96/230/27 104/254/27
f 170/231/28 174/255/28 65/256/28 61/232/28
f 139/257/27 135/233/27 233/234/27 229/258/27
f 204/235/28 208/259/28 103/260/28 95/236/28
f 136/237/28 140/261/28 230/262/28 234/238/28
f 173/263/27 169/239/27 62/240/27 66/264/27
f 206/241/28 107/265/28 100/266/28 97/242/28
f 175/267/27 171/243/27 64/244/27 68/268/27
f 138/245/28 142/269/28 228/270/28 232/246/28
f 172/247/28 176/271/28 67/272/28 63/248/28
f 108/273/27 205/249/27 98/250/27 99/274/27
f 141/275/27 137/251/27 231/252/27 227/276/27
f 174/255/28 178/277/28 69/278/28 65/256/28
f 143/279/27 139/257/27 229/258/27 225/280/27
f 106/281/27 207/253/27 104/254/27 101/282/27
f 140/261/28 144/283/28 226/284/28 230/262/28
f 177/285/27 173/263/27 66/264/27 70/286/27
f 208/259/28 105/287/28 102/288/28 103/260/28
f 107/265/28 110/289/28 260/290/28 100/266/28
f 179/291/27 175/267/27 68/268/27 72/292/27
f 142/269/28 146/293/28 224/294/28 228/270/28
f 208/54/26 52/53/26 2/166/1 105/165/1
f 99/295/1 98/296/26 97/297/26 100/298/1
f 95/299/25 103/61/26 104/64/26 96/300/25
f 98/296/26 94/301/25 93/302/25 97/297/26
f 91/303/24 95/299/25 96/300/25 92/304/24
f 94/301/25 90/305/24 89/306/24 93/302/25
f 87/307/23 91/303/24 92/304/24 88/308/23
f 90/305/24 86/309/23 85/310/23 89/306/24
f 83/311/22 87/312/23 88/313/23 84/314/22
f 86/315/23 82/316/22 81/317/22 85/318/23
f 79/319/21 83/311/22 84/314/22 80/320/21
f 82/316/22 78/321/21 77/322/21 81/317/22
f 75/323/20 79/319/21 80/320/21 76/324/20
f 78/321/21 74/325/20 73/326/20 77/322/21
f 71/327/19 75/323/20 76/324/20 72/328/19
f 74/325/20 70/329/19 69/330/19 73/326/20
f 67/331/18 71/327/19 72/328/19 68/332/18
f 70/329/19 66/333/18 65/334/18 69/330/19
f 63/335/17 67/331/18 68/332/18 64/336/17
f 66/333/18 62/337/17 61/338/17 65/334/18
f 59/339/16 63/335/17 64/336/17 60/340/16
f 62/337/17 58/341/16 57/342/16 61/338/17
f 55/343/15 59/339/16 60/340/16 56/344/15
f 58/341/16 54/345/15 53/346/15 57/342/16
f 210/347/14 55/343/15 56/344/15 209/348/14
f 54/345/15 211/349/14 212/350/14 53/346/15
f 214/351/13 210/347/14 209/348/14 213/352/13
f 211/349/14 215/353/13 216/354/13 212/350/14
f 218/355/12 214/351/13 213/352/13 217/356/12
f 215/353/13 219/357/12 220/358/12 216/354/13
f 222/359/11 218/355/12 217/356/12 221/360/11
f 219/357/12 223/361/11 224/362/11 220/358/12
f 226/363/10 222/359/11 221/360/11 225/364/10
f 223/361/11 227/365/10 228/366/10 224/362/11
f 230/367/9 226/363/10 225/364/10 229/368/9
f 227/365/10 231/369/9 232/370/9 228/366/10
f 234/371/8 230/367/9 229/368/9 233/372/8
f 231/369/9 235/373/8 236/374/8 232/370/9
f 238/375/7 234/371/8 233/372/8 237/376/7
f 235/373/8 239/377/7 240/378/7 236/374/8
f 242/379/6 238/375/7 237/376/7 241/380/6
f 239/377/7 243/381/6 244/382/6 240/378/7
f 246/383/5 242/379/6 241/380/6 245/384/5
f 243/381/6 247/385/5 248/386/5 244/382/6
f 250/387/4 246/383/5 245/384/5 249/388/4
f 247/385/5 251/389/4 252/390/4 248/386/5
f 254/391/3 250/387/4 249/388/4 253/392/3
f 251/389/4 255/393/3 256/394/3 252/390/4
f 258/395/2 254/391/3 253/392/3 257/396/2
f 255/393/3 259/397/2 260/398/2 256/394/3
f 102/62/1 258/395/2 257/396/2 101/63/1
f 259/397/2 99/295/1 100/298/1 260/398/2
f 124/399/28 128/211/28 242/214/28 246/400/28
f 192/401/28 196/402/28 87/403/28 83/404/28
f 127/204/27 123/405/27 245/406/27 241/205/27
f 158/407/28 162/199/28 53/202/28 212/408/28
f 195/409/27 191/410/27 84/411/27 88/412/27
f 125/192/27 121/413/27 247/414/27 243/193/27
f 193/415/27 189/416/27 82/417/27 86/418/27
f 156/419/28 160/183/28 210/186/28 214/420/28
f 122/421/28 126/179/28 244/182/28 248/422/28
f 159/176/27 155/423/27 213/424/27 209/177/27
f 190/425/28 194/426/28 85/427/28 81/428/28
f 157/168/27 153/429/27 215/430/27 211/169/27
f 120/431/28 124/399/28 246/400/28 250/432/28
f 188/433/28 192/401/28 83/404/28 79/434/28
f 123/405/27 119/435/27 249/436/27 245/406/27
f 154/437/28 158/407/28 212/408/28 216/438/28
f 191/410/27 187/439/27 80/440/27 84/411/27
f 121/413/27 117/441/27 251/442/27 247/414/27
f 189/416/27 185/443/27 78/444/27 82/417/27
f 152/445/28 156/419/28 214/420/28 218/446/28
f 118/447/28 122/421/28 248/422/28 252/448/28
f 155/423/27 151/449/27 217/450/27 213/424/27
f 186/451/28 190/425/28 81/428/28 77/452/28
f 153/429/27 149/453/27 219/454/27 215/430/27
f 116/455/28 120/431/28 250/432/28 254/456/28
f 184/457/28 188/433/28 79/434/28 75/458/28
f 119/435/27 115/459/27 253/460/27 249/436/27
f 150/461/28 154/437/28 216/438/28 220/462/28
f 187/439/27 183/463/27 76/464/27 80/440/27
f 117/441/27 113/465/27 255/466/27 251/442/27
f 185/443/27 181/467/27 74/468/27 78/444/27
f 148/469/28 152/445/28 218/446/28 222/470/28
f 114/471/28 118/447/28 252/448/28 256/472/28
f 151/449/27 147/473/27 221/474/27 217/450/27
f 182/475/28 186/451/28 77/452/28 73/476/28
f 149/453/27 145/477/27 223/478/27 219/454/27
f 112/479/28 116/455/28 254/456/28 258/480/28
f 180/481/28 184/457/28 75/458/28 71/482/28
f 115/459/27 111/483/27 257/484/27 253/460/27
f 146/293/28 150/461/28 220/462/28 224/294/28
f 183/463/27 179/291/27 72/292/27 76/464/27
f 113/465/27 109/485/27 259/486/27 255/466/27
f 181/467/27 177/285/27 70/286/27 74/468/27
f 144/283/28 148/469/28 222/470/28 226/284/28
f 110/289/28 114/471/28 256/472/28 260/290/28
f 147/473/27 143/279/27 225/280/27 221/474/27
f 178/277/28 182/475/28 73/476/28 69/278/28
f 105/287/28 112/479/28 258/480/28 102/288/28
f 145/477/27 141/275/27 227/276/27 223/478/27
f 111/483/27 106/281/27 101/282/27 257/484/27
f 176/271/28 180/481/28 71/482/28 67/272/28
f 109/485/27 108/273/27 99/274/27 259/486/27
f 27/487/28 29/488/28 289/489/28 287/490/28
f 1/491/28 3/492/28 263/493/28 261/494/28
f 30/495/27 28/496/27 288/497/27 290/498/27
f 4/499/27 2/500/27 262/501/27 264/502/27
f 29/488/28 31/503/28 291/504/28 289/489/28
f 3/492/28 5/505/28 265/506/28 263/493/28
f 32/507/27 30/495/27 290/498/27 292/508/27
f 6/509/27 4/499/27 264/502/27 266/510/27
f 31/503/28 33/511/28 293/512/28 291/504/28
f 5/505/28 7/513/28 267/514/28 265/506/28
f 34/515/27 32/507/27 292/508/27 294/516/27
f 8/517/27 6/509/27 266/510/27 268/518/27
f 33/511/28 35/519/28 295/520/28 293/512/28
f 7/513/28 9/521/28 269/522/28 267/514/28
f 36/523/27 34/515/27 294/516/27 296/524/27
f 10/525/27 8/517/27 268/518/27 270/526/27
f 35/519/28 37/527/28 297/528/28 295/520/28
f 9/521/28 11/529/28 271/530/28 269/522/28
f 38/531/27 36/523/27 296/524/27 298/532/27
f 12/533/27 10/525/27 270/526/27 272/534/27
f 37/527/28 39/535/28 299/536/28 297/528/28
f 11/529/28 13/537/28 273/538/28 271/530/28
f 40/539/27 38/531/27 298/532/27 300/540/27
f 14/541/27 12/533/27 272/534/27 274/542/27
f 39/535/28 41/543/28 301/544/28 299/536/28
f 13/537/28 15/545/28 275/546/28 273/538/28
f 42/547/27 40/539/27 300/540/27 302/548/27
f 16/549/27 14/541/27 274/542/27 276/550/27
f 41/543/28 43/551/28 303/552/28 301/544/28
f 15/545/28 17/553/28 277/554/28 275/546/28
f 44/555/27 42/547/27 302/548/27 304/556/27
f 18/557/27 16/549/27 276/550/27 278/558/27
f 43/551/28 45/559/28 305/560/28 303/552/28
f 17/553/28 19/561/28 279/562/28 277/554/28
f 46/563/27 44/555/27 304/556/27 306/564/27
f 20/565/27 18/557/27 278/558/27 280/566/27
f 45/567/28 47/568/28 307/569/28 305/570/28
f 19/561/28 21/571/28 281/572/28 279/562/28
f 48/573/27 46/574/27 306/575/27 308/576/27
f 22/577/27 20/565/27 280/566/27 282/578/27
f 47/568/28 49/579/28 309/580/28 307/569/28
f 21/571/28 23/581/28 283/582/28 281/572/28
f 50/583/27 48/573/27 308/576/27 310/584/27
f 24/585/27 22/577/27 282/578/27 284/586/27
f 49/579/28 51/587/28 311/588/28 309/580/28
f 23/581/28 25/589/28 285/590/28 283/582/28
f 52/591/27 50/583/27 310/584/27 312/592/27
f 26/593/27 24/585/27 284/586/27 286/594/27
f 51/587/28 1/491/28 261/494/28 311/588/28
f 25/589/28 27/487/28 287/490/28 285/590/28
f 2/500/27 52/591/27 312/592/27 262/501/27
f 28/496/27 26/593/27 286/594/27 288/497/27
f 262/595/14 312/596/13 311/597/13 261/598/14
f 312/596/13 310/599/12 309/600/12 311/597/13
f 310/599/12 308/601/11 307/602/11 309/600/12
f 308/601/11 306/603/10 305/604/10 307/602/11
f 306/605/10 304/606/9 303/607/9 305/608/10
f 304/606/9 302/609/8 301/610/8 303/607/9
f 302/609/8 300/611/7 299/612/7 301/610/8
f 300/611/7 298/613/6 297/614/6 299/612/7
f 298/613/6 296/615/5 295/616/5 297/614/6
f 296/615/5 294/617/4 293/618/4 295/616/5
f 294/617/4 292/619/3 291/620/3 293/618/4
f 292/619/3 290/621/2 289/622/2 291/620/3
f 290/621/2 288/623/1 287/624/1 289/622/2
f 288/623/1 286/625/26 285/626/26 287/624/1
f 286/625/26 284/627/25 283/628/25 285/626/26
f 284/627/25 282/629/24 281/630/24 283/628/25
f 282/629/24 280/631/23 279/632/23 281/630/24
f 280/631/23 278/633/22 277/634/22 279/632/23
f 278/633/22 276/635/21 275/636/21 277/634/22
f 276/635/21 274/637/20 273/638/20 275/636/21
f 274/637/20 272/639/19 271/640/19 273/638/20
f 272/639/19 270/641/18 269/642/18 271/640/19
f 270/641/18 268/643/17 267/644/17 269/642/18
f 268/643/17 266/645/16 265/646/16 267/644/17
f 266/645/16 264/647/15 263/648/15 265/646/16
f 264/647/15 262/595/14 261/598/14 263/648/15
