# Blender 5.1.0
# www.blender.org
mtllib base.mtl
o SM_Bin
v 0.134609 0.341447 -0.154023
v 0.134609 0.257073 -0.154023
v 0.134609 0.341447 0.155589
v 0.134609 0.257073 0.155589
v 0.150624 0.341447 -0.154648
v 0.150624 0.257073 -0.154648
v 0.150624 0.341447 0.154964
v 0.150624 0.257073 0.154964
v 0.134609 0.341447 -0.124198
v 0.134609 0.341447 -0.115044
v 0.134609 0.257073 -0.115044
v 0.134609 0.257073 -0.124198
v 0.134609 0.341447 0.116609
v 0.134609 0.341447 0.125763
v 0.134609 0.257073 0.125763
v 0.134609 0.257073 0.116609
v 0.150624 0.341447 -0.115669
v 0.150624 0.341447 -0.124823
v 0.150624 0.257073 -0.124823
v 0.150624 0.257073 -0.115669
v 0.150624 0.341447 0.125139
v 0.150624 0.341447 0.115985
v 0.150624 0.257073 0.115985
v 0.150624 0.257073 0.125139
v -0.075500 0.257073 0.124294
v -0.075500 0.286102 0.124294
v -0.087953 0.257073 -0.116385
v -0.088445 0.257073 -0.125539
v -0.075008 0.257073 0.133448
v -0.075008 0.286102 0.133448
v -0.088445 0.286102 -0.125539
v -0.087953 0.286102 -0.116385
v 0.024019 0.257073 0.118073
v 0.071501 0.257073 0.116609
v 0.024511 0.257073 0.127227
v 0.071994 0.257073 0.125763
v 0.071994 0.341447 0.125763
v 0.024558 0.286131 0.127224
v 0.071502 0.341447 0.116609
v 0.024066 0.286131 0.118070
v 0.058557 0.257073 -0.124198
v 0.011009 0.257073 -0.124454
v 0.011502 0.257073 -0.115300
v 0.059049 0.257073 -0.115044
v 0.059049 0.341447 -0.115044
v 0.011548 0.286102 -0.115300
v 0.011056 0.286102 -0.124454
v 0.058557 0.341447 -0.124198
vn -0.0000 1.0000 -0.0000
vn 1.0000 -0.0000 -0.0000
vn -0.0000 -1.0000 -0.0000
vn -0.0390 -0.0000 -0.9992
vn 0.0390 -0.0000 0.9992
vn -1.0000 -0.0000 -0.0000
vn 0.0081 -0.0000 -1.0000
vn 0.0109 -0.0000 -0.9999
vn 0.0075 -0.0000 -1.0000
vn -0.0003 1.0000 -0.0000
vn -0.0000 -0.0000 -1.0000
vn 0.0027 -0.0000 -1.0000
vn 0.0017 -0.0000 -1.0000
vn -0.0466 -0.0000 -0.9989
vn -0.0624 -0.0000 -0.9981
vn -0.0432 -0.0000 -0.9991
vn 0.0432 -0.0000 0.9991
vn 0.0624 -0.0000 0.9981
vn 0.0466 -0.0000 0.9989
vn -0.9986 -0.0000 0.0537
vn -0.0000 -0.0000 1.0000
vn 0.0096 -0.0000 1.0000
vn 0.0154 -0.0000 0.9999
vn -0.0075 -0.0000 1.0000
vn -0.0109 -0.0000 0.9999
vn -0.0081 -0.0000 1.0000
vn -0.0017 -0.0000 1.0000
vn -0.0027 -0.0000 1.0000
vn -0.0154 -0.0000 -0.9999
vn -0.0096 -0.0000 -1.0000
vn -0.7579 0.6510 0.0407
vn -0.7583 0.6506 0.0408
vt 0.816520 0.033371
vt 0.848169 0.033371
vt 0.848169 0.021041
vt 0.816520 0.021041
vt 0.560984 0.021041
vt 0.560984 0.033370
vt 0.806806 0.033371
vt 0.806806 0.021041
vt 0.203660 0.705927
vt 0.172011 0.705927
vt 0.172011 0.795332
vt 0.203660 0.795332
vt 0.515119 0.002966
vt 0.483469 0.002966
vt 0.483469 0.015295
vt 0.515119 0.015295
vt 0.780368 0.015295
vt 0.812018 0.015295
vt 0.812018 0.002965
vt 0.780368 0.002966
vt 0.468909 0.795332
vt 0.500559 0.795332
vt 0.500559 0.705927
vt 0.468909 0.705927
vt 0.305897 0.015295
vt 0.305897 0.002966
vt 0.216492 0.002966
vt 0.216492 0.015295
vt 0.152949 0.800894
vt 0.152949 0.788565
vt 0.063543 0.788565
vt 0.063543 0.800894
vt 0.703850 0.951062
vt 0.949671 0.951062
vt 0.949671 0.861656
vt 0.703850 0.861656
vt 0.791194 0.037767
vt 0.791194 0.111235
vt 0.800894 0.110714
vt 0.800894 0.037245
vt 0.237348 0.877699
vt 0.237348 0.909348
vt 0.326754 0.909348
vt 0.326754 0.877699
vt 0.770654 0.015295
vt 0.770654 0.002966
vt 0.524833 0.002966
vt 0.524833 0.015295
vt 0.551271 0.021041
vt 0.519621 0.021041
vt 0.519621 0.033370
vt 0.551271 0.033370
vt 0.459195 0.795332
vt 0.459195 0.705927
vt 0.213374 0.705927
vt 0.213374 0.795332
vt 0.415967 0.887101
vt 0.489435 0.887101
vt 0.488914 0.877402
vt 0.415445 0.877402
vt 0.784159 0.073524
vt 0.678769 0.073524
vt 0.678769 0.104283
vt 0.784209 0.104283
vt 0.906568 0.841217
vt 0.906568 0.809567
vt 0.817162 0.809567
vt 0.817162 0.841217
vt 0.807846 0.816228
vt 0.702455 0.816228
vt 0.701828 0.825922
vt 0.807219 0.825922
vt 0.702187 0.853731
vt 0.807846 0.853731
vt 0.807761 0.844017
vt 0.702102 0.844017
vt 0.809237 0.830113
vt 0.703528 0.830113
vt 0.703443 0.839826
vt 0.809152 0.839826
vt 0.504627 0.795332
vt 0.578096 0.795332
vt 0.578096 0.705927
vt 0.504627 0.705927
vt 0.211347 0.107827
vt 0.211347 0.002387
vt 0.201653 0.003014
vt 0.201653 0.108454
vt 0.567314 0.105674
vt 0.672974 0.105674
vt 0.672974 0.074914
vt 0.567265 0.074883
vt 0.553351 0.069522
vt 0.659060 0.069522
vt 0.659069 0.038763
vt 0.553409 0.038731
vt 0.225251 0.020687
vt 0.215538 0.020687
vt 0.215538 0.051446
vt 0.225251 0.051446
vt 0.173824 0.037542
vt 0.183538 0.037542
vt 0.183538 0.006782
vt 0.173824 0.006782
vt 0.181987 0.183538
vt 0.182148 0.110070
vt 0.172449 0.109527
vt 0.172288 0.182996
vt 0.002724 0.967747
vt 0.076193 0.967747
vt 0.076193 0.878342
vt 0.002724 0.878342
vt 0.664864 0.068132
vt 0.770304 0.068132
vt 0.770304 0.037372
vt 0.664914 0.037372
vt 0.186816 0.002338
vt 0.187737 0.075801
vt 0.197443 0.076201
vt 0.196522 0.002738
vt 0.937157 0.023220
vt 0.863689 0.023220
vt 0.863689 0.112626
vt 0.937157 0.112626
vt 0.205504 0.967747
vt 0.255841 0.967747
vt 0.255792 0.936957
vt 0.205504 0.878342
vt 0.181987 0.059686
vt 0.172288 0.059143
vt 0.186816 0.126130
vt 0.196522 0.126530
vt 0.331559 0.887101
vt 0.408790 0.887101
vt 0.408645 0.877389
vt 0.331414 0.877389
vt 0.182148 0.266591
vt 0.182148 0.189307
vt 0.172441 0.189680
vt 0.172441 0.266965
vt 0.813354 0.081866
vt 0.813305 0.112626
vt 0.628479 0.795332
vt 0.628430 0.764573
vt 0.126481 0.909132
vt 0.126530 0.878342
vt 0.132035 0.967747
vt 0.132035 0.878342
s 1
usemtl T_Bin.001
f 18/1/1 5/2/1 1/3/1 9/4/1
f 13/5/1 22/6/1 17/7/1 10/8/1
f 21/9/2 7/10/2 8/11/2 24/12/2
f 24/13/3 8/14/3 4/15/3 15/16/3
f 12/17/3 2/18/3 6/19/3 19/20/3
f 19/21/2 6/22/2 5/23/2 18/24/2
f 1/25/4 5/26/4 6/27/4 2/28/4
f 4/29/5 8/30/5 7/31/5 3/32/5
f 11/33/6 16/34/6 13/35/6 10/36/6
f 13/37/1 39/38/1 37/39/1 14/40/1
f 15/41/6 4/42/6 3/43/6 14/44/6
f 11/45/3 20/46/3 23/47/3 16/48/3
f 14/49/1 3/50/1 7/51/1 21/52/1
f 20/53/2 17/54/2 22/55/2 23/56/2
f 9/57/1 48/58/1 45/59/1 10/60/1
f 42/61/7 28/62/8 31/63/8 47/64/9
f 18/24/2 17/54/2 20/53/2 19/21/2
f 22/55/2 21/9/2 24/12/2 23/56/2
f 9/4/1 10/8/1 17/7/1 18/1/1
f 21/52/1 22/6/1 13/5/1 14/49/1
f 11/45/3 12/17/3 19/20/3 20/46/3
f 15/16/3 16/48/3 23/47/3 24/13/3
f 9/65/6 1/66/6 2/67/6 12/68/6
f 43/69/3 27/70/3 28/71/3 42/72/3
f 35/73/3 29/74/3 25/75/3 33/76/3
f 40/77/10 26/78/10 30/79/10 38/80/10
f 12/81/11 41/82/12 48/83/13 9/84/11
f 47/85/1 31/86/1 32/87/1 46/88/1
f 33/89/14 25/90/15 26/91/15 40/92/16
f 38/93/17 30/94/18 29/95/18 35/96/19
f 32/97/20 31/98/20 28/99/20 27/100/20
f 30/101/20 26/102/20 25/103/20 29/104/20
f 11/105/3 44/106/3 41/107/3 12/108/3
f 14/109/21 37/110/22 36/111/23 15/112/21
f 46/113/24 32/114/25 27/115/25 43/116/26
f 15/117/3 36/118/3 34/119/3 16/120/3
f 10/121/21 45/122/27 44/123/28 11/124/21
f 34/125/29 33/126/14 40/127/16 39/128/30
f 44/106/3 43/129/3 42/130/3 41/107/3
f 36/118/3 35/131/3 33/132/3 34/119/3
f 39/133/31 40/134/31 38/135/31 37/136/31
f 48/137/32 47/138/32 46/139/32 45/140/32
f 45/122/27 46/141/24 43/142/26 44/123/28
f 41/82/12 42/143/7 47/144/9 48/83/13
f 37/110/22 38/145/17 35/146/19 36/111/23
f 16/147/11 34/125/29 39/128/30 13/148/11
